<svg xmlns="http://www.w3.org/2000/svg" xmlns:xlink="http://www.w3.org/1999/xlink" viewBox="0 0 41.61 41.67"><defs><style>.cls-1{fill:url(#linear-gradient);}.cls-2{fill:url(#linear-gradient-2);}.cls-3{fill:url(#linear-gradient-3);}</style><linearGradient id="linear-gradient" y1="23.02" x2="51.72" y2="23.02" gradientUnits="userSpaceOnUse"><stop offset="0" stop-color="#034685"/><stop offset="1" stop-color="#1b75bc"/></linearGradient><linearGradient id="linear-gradient-2" x1="-22.76" y1="27.17" x2="35.89" y2="3.51" gradientUnits="userSpaceOnUse"><stop offset="0" stop-color="#a8bfdf"/><stop offset="1" stop-color="#1b75bc"/></linearGradient><linearGradient id="linear-gradient-3" x1="47.56" y1="23.94" x2="21.72" y2="9.48" gradientUnits="userSpaceOnUse"><stop offset="0" stop-color="#3785c6"/><stop offset="1" stop-color="#a2c4e8"/></linearGradient></defs><title>iconBudget_1</title><g id="Layer_2" data-name="Layer 2"><g id="Layer_1-2" data-name="Layer 1"><path class="cls-1" d="M33.38,4.36a19.69,19.69,0,0,1,7.87,12.7A20.81,20.81,0,1,1,.18,23.75a19.83,19.83,0,0,1,.06-5.68c1.89.23,3.77.43,5.66.69,4.88.66,9.75,1.35,14.63,2l.28,0,.36-.79a1.06,1.06,0,0,0,.64-.46Z"/><path class="cls-2" d="M20.52,20.79c-4.88-.68-9.75-1.36-14.63-2C4,18.5,2.12,18.3.23,18.07a20.08,20.08,0,0,1,4-9.83A20.68,20.68,0,0,1,20.74,0c0,.08,0,.11,0,.25,0,.68,0,1.36,0,2q0,8.85,0,17.71c0,.18,0,.64,0,.82A2,2,0,0,1,20.52,20.79Z"/><path class="cls-3" d="M20.77,2.31c0-.68,0-1.36,0-2,0-.09,0-.17,0-.25,5.82-.26,12.35,3.86,12.63,4.35L21.79,19.58a10.54,10.54,0,0,1-1,1.25C20.78,14.92,20.79,8.22,20.77,2.31Z"/></g></g></svg>